<svg xmlns="http://www.w3.org/2000/svg" width="318" height="280" viewBox="0 0 318 280" version="1.1"><path d="M 114.346 234.250 C 113.937 234.911, 123.463 235.387, 124.346 234.750 C 124.537 234.613, 125.523 235.175, 126.538 236 C 127.981 237.172, 128.199 237.193, 127.537 236.095 C 126.907 235.049, 127.049 234.914, 128.095 235.567 C 128.868 236.048, 130.373 236.578, 131.439 236.744 C 134.771 237.262, 134.292 237.800, 130.500 237.800 C 128.502 237.800, 126.597 238.070, 126.267 238.400 C 125.229 239.438, 132.168 239.057, 143.813 237.438 C 161.105 235.034, 166.144 236.305, 157.500 240.890 C 155.025 242.204, 153 243.755, 153 244.339 C 153 245.010, 153.441 244.959, 154.200 244.200 C 155.823 242.577, 158 242.682, 158 244.383 C 158 245.830, 160.755 246.894, 165 247.086 L 167.500 247.199 165 248.083 C 163.309 248.681, 165.041 248.833, 170.347 248.553 C 178.028 248.148, 179.973 247.639, 178.701 246.367 C 178.149 245.816, 174.029 245.493, 162.563 245.100 L 159.626 245 162.313 242.195 C 165.546 238.821, 165.771 235.483, 162.871 233.931 C 160.475 232.649, 115.153 232.947, 114.346 234.250" stroke="none" fill="#58b0dd" fill-rule="evenodd"/><path d="M 215.075 49.472 C 210.053 57.661, 203.211 67.402, 199.120 72.185 C 198.031 73.458, 191.726 81.700, 185.109 90.500 C 178.491 99.300, 172.610 107.044, 172.038 107.708 C 171.467 108.372, 171 109.320, 171 109.814 C 171 110.308, 169.428 112.772, 167.506 115.288 C 158.642 126.897, 143.584 154.730, 140.590 165.039 C 139.705 168.085, 138.559 173.260, 138.043 176.539 C 137.107 182.488, 137.105 182.482, 137.372 174 C 137.545 168.500, 138.271 164.088, 139.429 161.500 C 146.688 145.273, 151.247 137.017, 160.158 123.961 C 165.767 115.744, 170.108 108.775, 169.806 108.473 C 168.965 107.632, 157.075 120.866, 148.417 132.280 C 138.310 145.605, 133.842 155.125, 133.217 164.666 C 132.645 173.402, 133.603 180.460, 135.638 182.495 C 136.996 183.853, 136.976 184.567, 135.449 189.257 C 134.510 192.141, 132.081 196.975, 130.052 200 C 123.692 209.478, 114.687 222.035, 109.814 228.221 C 107.228 231.502, 105.370 234.800, 105.668 235.577 C 106.632 238.090, 115.753 240.010, 125.932 239.843 C 133.991 239.711, 134.712 239.578, 130.500 239 C 125.909 238.370, 127.680 237.469, 132.500 237.983 C 135.009 238.250, 134.070 237.153, 131.439 236.744 C 130.373 236.578, 128.868 236.048, 128.095 235.567 C 127.049 234.914, 126.907 235.049, 127.537 236.095 C 128.199 237.193, 127.981 237.172, 126.538 236 C 125.523 235.175, 124.537 234.613, 124.346 234.750 C 123.399 235.434, 113.952 234.886, 114.393 234.173 C 114.674 233.718, 117.150 233.634, 119.896 233.987 C 122.641 234.339, 124.661 234.261, 124.385 233.814 C 124.108 233.366, 122.523 233, 120.862 233 L 117.842 233 121.671 229.156 C 123.777 227.041, 126.624 223.104, 127.997 220.406 C 129.371 217.707, 131.218 214.375, 132.102 213 C 132.986 211.625, 135.416 207.267, 137.502 203.315 C 143.538 191.878, 148.979 185.738, 159.125 178.916 C 171.513 170.586, 180.707 161.059, 185.778 151.298 C 190.857 141.521, 194.198 132.798, 193.232 131.832 C 192.826 131.426, 190.470 132.474, 187.997 134.161 C 183.871 136.976, 171.703 143.003, 170.157 142.998 C 169.796 142.996, 172.745 140.859, 176.711 138.248 C 187.090 131.414, 197.128 122.059, 199.768 116.762 C 202.957 110.359, 208.120 95.786, 207.439 95.105 C 207.126 94.793, 205.662 95.248, 204.185 96.117 C 202.708 96.985, 199.700 98.706, 197.500 99.941 C 193.631 102.114, 193.589 102.117, 196.216 100.035 C 197.710 98.851, 201.592 94.576, 204.843 90.535 C 211.564 82.180, 214.580 75.167, 219.032 57.538 C 222.081 45.467, 222.649 41, 221.135 41 C 220.659 41, 217.932 44.812, 215.075 49.472 M 134.250 232.745 C 139.062 232.928, 146.937 232.928, 151.750 232.745 C 156.563 232.561, 152.625 232.411, 143 232.411 C 133.375 232.411, 129.438 232.561, 134.250 232.745 M 147 237.033 C 144.082 237.536, 145.615 237.622, 151.362 237.277 C 158.222 236.865, 160.442 237.056, 161.188 238.122 C 161.981 239.255, 162.080 239.233, 161.748 238 C 161.278 236.259, 154.185 235.794, 147 237.033 M 165.116 237.445 C 165.052 238.515, 163.791 240.653, 162.313 242.195 C 160.835 243.738, 160.048 244.975, 160.563 244.945 C 162.280 244.843, 166.154 239.031, 165.690 237.253 C 165.293 235.734, 165.216 235.760, 165.116 237.445 M 137.250 238.689 C 138.213 238.941, 139.787 238.941, 140.750 238.689 C 141.713 238.438, 140.925 238.232, 139 238.232 C 137.075 238.232, 136.287 238.438, 137.250 238.689 M 154.875 241.500 C 154.806 241.775, 154.694 242.563, 154.625 243.250 C 154.556 243.938, 153.825 244.500, 153 244.500 C 151.617 244.500, 151.438 245.063, 151.850 248.107 C 151.933 248.716, 152.675 248.955, 153.500 248.638 C 154.325 248.322, 155 248.499, 155 249.031 C 155 249.564, 157.588 249.968, 160.750 249.930 C 164.887 249.879, 165.939 249.618, 164.500 249 C 162.655 248.207, 162.694 248.129, 165 247.991 C 167.902 247.818, 167.001 247.415, 161.750 246.537 C 159.423 246.147, 158 245.357, 158 244.455 C 158 243.655, 157.298 243, 156.441 243 C 155.584 243, 155.160 242.550, 155.500 242 C 155.840 241.450, 155.866 241, 155.559 241 C 155.252 241, 154.944 241.225, 154.875 241.500 M 176.250 245.716 C 177.762 245.945, 179 246.553, 179 247.066 C 179 247.580, 177.762 248.036, 176.250 248.079 C 174.738 248.122, 174.087 248.393, 174.804 248.680 C 175.521 248.967, 177.691 248.905, 179.627 248.542 C 182.549 247.994, 182.944 247.637, 181.951 246.441 C 181.258 245.606, 179.229 245.063, 177.128 245.150 C 174.107 245.275, 173.960 245.369, 176.250 245.716" stroke="none" fill="#5575f9" fill-rule="evenodd"/></svg>